Coordinates
version=1
nRows=54
nColumns=12
inDegrees=yes

Units are S.I. units (second, meters, Newtons, ...)
Angles are in degrees

endheader
time	SC_y	SC_z	SC_x	AC_y	AC_z	AC_x	GH_y	GH_z	GH_yy	EL_x	PS_y
       0.0              -42.22          3.656          79.18          61.27         -6.278          8.074         -46.38         -12.78          84.44          127.6          76.43
  0.008593              -42.21          3.656          79.17          61.27         -6.279          8.074         -46.38         -12.77          84.45          127.6          76.43
   0.01719              -42.21          3.656          79.16          61.26          -6.28          8.073         -46.38         -12.75          84.46          127.6          76.43
   0.02578              -42.21          3.656          79.14          61.26         -6.281          8.072         -46.38         -12.74          84.46          127.6          76.43
   0.03437              -42.21          3.655          79.13          61.26         -6.282          8.071         -46.38         -12.72          84.47          127.6          76.42
   0.04296              -42.21          3.655          79.12          61.25         -6.282           8.07         -46.38         -12.71          84.48          127.6          76.42
   0.05156              -42.21          3.655           79.1          61.25         -6.283          8.069         -46.38         -12.69          84.48          127.6          76.42
   0.06015               -42.2          3.654          79.09          61.25         -6.285          8.068         -46.38         -12.67          84.49          127.6          76.42
   0.06874               -42.2          3.654          79.07          61.24         -6.286          8.067         -46.38         -12.65           84.5          127.6          76.42
   0.07733               -42.2          3.653          79.05          61.24         -6.287          8.066         -46.38         -12.63          84.51          127.6          76.42
   0.08593              -42.19          3.653          79.03          61.23         -6.288          8.064         -46.38          -12.6          84.52          127.6          76.41
   0.09452              -42.19          3.652          79.01          61.23          -6.29          8.063         -46.37         -12.58          84.53          127.6          76.41
    0.1031              -42.19          3.652          78.99          61.22         -6.291          8.061         -46.37         -12.55          84.54          127.6          76.41
    0.1117              -42.19          3.651          78.97          61.22         -6.293           8.06         -46.37         -12.52          84.55          127.5          76.41
    0.1203              -42.18           3.65          78.94          61.21         -6.295          8.058         -46.37         -12.49          84.57          127.5           76.4
    0.1289              -42.18           3.65          78.91          61.21         -6.297          8.056         -46.37         -12.46          84.58          127.5           76.4
    0.1375              -42.17          3.649          78.88           61.2         -6.299          8.054         -46.37         -12.42           84.6          127.5           76.4
    0.1461              -42.17          3.648          78.85          61.19         -6.301          8.051         -46.36         -12.38          84.62          127.5           76.4
    0.1547              -42.16          3.647          78.81          61.18         -6.304          8.049         -46.36         -12.33          84.64          127.5          76.39
    0.1633              -42.16          3.646          78.77          61.17         -6.306          8.046         -46.36         -12.28          84.66          127.5          76.39
    0.1719              -42.15          3.645          78.73          61.16         -6.309          8.043         -46.36         -12.23          84.68          127.4          76.38
    0.1804              -42.14          3.644          78.68          61.15         -6.313          8.039         -46.35         -12.17           84.7          127.4          76.38
     0.189              -42.14          3.643          78.62          61.14         -6.316          8.036         -46.35         -12.11          84.73          127.4          76.37
    0.1976              -42.13          3.641          78.56          61.13         -6.321          8.031         -46.35         -12.03          84.76          127.4          76.37
    0.2062              -42.12           3.64           78.5          61.11         -6.325          8.027         -46.34         -11.95           84.8          127.3          76.36
    0.2148              -42.11          3.638          78.42          61.09          -6.33          8.022         -46.34         -11.87          84.83          127.3          76.35
    0.2234               -42.1          3.636          78.34          61.07         -6.336          8.016         -46.33         -11.76          84.88          127.3          76.34
     0.232              -42.08          3.633          78.25          61.05         -6.342          8.009         -46.33         -11.65          84.93          127.2          76.33
    0.2406              -42.07          3.631          78.14          61.03          -6.35          8.002         -46.32         -11.52          84.98          127.2          76.32
    0.2492              -42.05          3.628          78.03           61.0         -6.358          7.994         -46.31         -11.38          85.04          127.1          76.31
    0.2578              -42.03          3.625          77.89          60.97         -6.367          7.984          -46.3         -11.22          85.11          127.1           76.3
    0.2664              -42.01          3.621          77.73          60.93         -6.378          7.973         -46.29         -11.03          85.19          127.0          76.28
     0.275              -41.98          3.616          77.55          60.89          -6.39          7.961         -46.28         -10.81          85.29          126.9          76.26
    0.2836              -41.95          3.611          77.34          60.84         -6.405          7.946         -46.27         -10.55          85.39          126.8          76.24
    0.2921              -41.92          3.605           77.1          60.78         -6.422          7.929         -46.25         -10.26          85.52          126.7          76.21
    0.3007              -41.87          3.598          76.81          60.72         -6.441          7.909         -46.23         -9.905          85.67          126.6          76.18
    0.3093              -41.82          3.589          76.47          60.64         -6.465          7.885         -46.21         -9.488          85.85          126.4          76.15
    0.3179              -41.76          3.579          76.06          60.54         -6.493          7.856         -46.18         -8.989          86.06          126.3           76.1
    0.3265              -41.69          3.567          75.56          60.43         -6.528          7.821         -46.15         -8.385          86.32          126.0          76.05
    0.3351              -41.61          3.552          74.95          60.28         -6.569          7.779         -46.11         -7.647          86.63          125.8          75.99
    0.3437               -41.5          3.534           74.2          60.11         -6.621          7.726         -46.07         -6.736          87.02          125.5          75.91
    0.3523              -41.36           3.51          73.27          59.89         -6.686          7.661         -46.01           -5.6          87.51          125.0          75.81
    0.3609              -41.19          3.481          72.09          59.62         -6.767          7.578         -45.93          -4.17          88.12          124.5          75.69
    0.3695              -40.97          3.444          70.59          59.27          -6.87          7.474         -45.83         -2.351          88.89          123.9          75.53
    0.3781               -40.7          3.397          68.67          58.82         -7.002           7.34         -45.71       -0.02305          89.89          123.0          75.33
    0.3867              -40.34          3.336          66.22          58.25         -7.171          7.168         -45.55          2.964          91.16          122.0          75.08
    0.3953              -39.89          3.259          63.07          57.52         -7.388          6.948         -45.35           6.78          92.79          120.6          74.75
    0.4038              -39.32          3.161          59.12           56.6          -7.66          6.671          -45.1          11.58          94.83          118.9          74.34
    0.4124              -38.62          3.042          54.31          55.48         -7.992          6.335         -44.79          17.43          97.33          116.7          73.84
     0.421              -37.82          2.905          48.73          54.18         -8.376          5.944         -44.43           24.2          100.2          114.3          73.26
    0.4296              -36.94          2.755          42.69          52.77         -8.793          5.521         -44.04          31.54          103.3          111.7          72.63
    0.4382              -36.07          2.606          36.64          51.37         -9.209          5.099         -43.65          38.88          106.5          109.0           72.0
    0.4468              -35.26          2.468          31.06          50.07         -9.593          4.708          -43.3          45.66          109.4          106.6          71.41
    0.4554              -34.57          2.349          26.25          48.95         -9.925          4.372         -42.99          51.51          111.9          104.5          70.91
